<?xml version="1.0" encoding="UTF-8"?>
<svg id="Camada_1" data-name="Camada 1" xmlns="http://www.w3.org/2000/svg" viewBox="0 0 123.93 123.93">
  <defs>
    <style>
      .cls-1 {
        fill: #8f8f7a;
        fill-rule: evenodd;
      }
    </style>
  </defs>
  <path class="cls-1" d="M118.6,85.89c-3.1,7.32-7.53,13.89-13.17,19.54-5.64,5.64-12.22,10.08-19.54,13.17-7.58,3.2-15.63,4.83-23.92,4.83s-16.35-1.63-23.92-4.83c-7.32-3.1-13.89-7.53-19.54-13.17-5.64-5.64-10.08-12.22-13.17-19.54-3.21-7.58-4.83-15.63-4.83-24.47,0-7.76,1.63-15.81,4.83-23.38,3.1-7.32,7.53-13.89,13.17-19.54,5.64-5.64,12.22-10.08,19.54-13.17,7.58-3.2,15.63-4.83,23.92-4.83s16.35,1.63,23.92,4.83c7.32,3.1,13.89,7.53,19.54,13.17,5.64,5.64,10.08,12.22,13.17,19.54,3.21,7.58,4.83,15.63,4.83,23.38,0,8.84-1.63,16.89-4.83,24.47ZM56.13,50.26c-3.47,1.58-6.19,3.41-8.07,5.44-1.86,2.01-2.81,4.12-2.81,5.73,0,2.69.95,4.8,2.81,6.81,1.88,2.03,4.59,3.86,8.07,5.44,1.8.82,3.76,1.55,5.83,2.19,2.07-.63,4.03-1.36,5.83-2.19,3.47-1.58,6.19-3.41,8.07-5.44,1.86-2.01,2.81-4.12,2.81-6.81,0-1.61-.95-3.72-2.81-5.73-1.88-2.03-4.59-3.86-8.07-5.44-1.8-.82-3.76-1.55-5.83-2.19-2.08.63-4.03,1.36-5.83,2.19ZM58.58,47.15c-5.48-1.32-11.62-2.02-18.02-2.02-10.3,0-19.98,1.82-27.23,5.13-3.47,1.58-6.18,3.41-8.07,5.44-1.86,2.01-2.81,4.12-2.81,5.73,0,2.69.95,4.8,2.81,6.81,1.88,2.03,4.59,3.86,8.07,5.44,7.26,3.31,16.93,5.13,27.23,5.13,6.39,0,12.54-.7,18.02-2.02-1.13-.41-2.22-.85-3.26-1.33-7.75-3.53-12.02-8.32-12.02-14.03,0-4.62,4.27-9.41,12.02-12.94,1.04-.47,2.13-.91,3.26-1.33ZM68.61,48.48c7.75,3.53,12.02,8.32,12.02,12.94,0,5.7-4.27,10.49-12.02,14.03-1.04.47-2.13.91-3.26,1.33,5.48,1.32,11.62,2.02,18.02,2.02,10.3,0,19.98-1.82,27.23-5.13,3.47-1.58,6.18-3.41,8.07-5.44,1.86-2.01,2.81-4.12,2.81-6.81,0-1.61-.95-3.72-2.81-5.73-1.88-2.03-4.59-3.86-8.07-5.44-7.26-3.31-16.93-5.13-27.23-5.13-6.39,0-12.54.7-18.02,2.02,1.13.41,2.22.86,3.26,1.33ZM7.13,85.13c3,7.09,7.29,13.45,12.75,18.92,5.47,5.47,11.83,9.76,18.92,12.75,7.34,3.1,15.13,4.68,23.16,4.68s15.83-1.57,23.16-4.68c7.09-3,13.45-7.29,18.92-12.75s9.76-11.83,12.75-18.92c2.28-5.38,3.72-11.01,4.33-16.8-2.01,2.67-5.29,5.1-9.72,7.12-7.51,3.42-17.47,5.31-28.04,5.31-7.7,0-15.06-1-21.4-2.86-6.34,1.86-13.7,2.86-21.4,2.86-10.58,0-20.54-1.88-28.04-5.31-4.43-2.02-7.72-4.45-9.72-7.12.61,5.79,2.06,11.42,4.33,16.8ZM116.8,38.8c-3-7.09-7.29-13.45-12.75-18.92-5.47-5.47-11.83-9.76-18.92-12.75-7.34-3.1-15.13-4.68-23.16-4.68s-15.83,1.57-23.16,4.68c-7.09,3-13.45,7.29-18.92,12.75-5.47,5.47-9.76,11.83-12.75,18.92-2.28,5.38-3.72,11.01-4.33,16.8,2.01-2.68,5.29-5.1,9.72-7.12,7.51-3.42,17.47-5.31,28.04-5.31,7.7,0,15.06,1,21.4,2.86,6.34-1.86,13.7-2.86,21.4-2.86,10.58,0,20.54,1.88,28.04,5.31,4.43,2.02,7.72,4.45,9.72,7.12-.61-5.79-2.06-11.42-4.33-16.8Z"/>
</svg>